<?xml version="1.0" encoding="iso-8859-1"?>
<!DOCTYPE svg PUBLIC "-//W3C//DTD SVG 1.1//EN" "http://www.w3.org/Graphics/SVG/1.1/DTD/svg11.dtd">
<svg xmlns="http://www.w3.org/2000/svg" xmlns:xlink="http://www.w3.org/1999/xlink" version="1.1" viewBox="0 0 460 460" enable-background="new 0 0 460 460" width="512px" height="512px">
  <g>
    <path d="m169.678,460c2.144,0 4.186-0.915 5.613-2.516 1.427-1.6 2.102-3.734 1.857-5.864l-4.792-41.603c5.751-7.586 10.087-16.617 10.96-27.068 0,0 38.237-7.461 51.166-8.385 8.352-0.597 16.597,3.907 22.102,10.082 4.56,5.115 6.674,11.378 5.955,17.637-1.956,17.01-6.786,48.745-6.834,49.064-0.33,2.167 0.302,4.37 1.73,6.034 1.429,1.663 3.512,2.619 5.704,2.619h57.668c2.988,0 5.693-1.769 6.89-4.507 0.348-0.797 31.197-71.505 59.584-149.054 23.704-3.053 42.083-23.349 42.083-47.87 0-10.698-3.514-20.976-9.973-29.381 3.379-11.813 5.155-23.48 5.155-33.969 0-11.324-2.719-20.574-8.248-27.935l32.641-118.018c5.001-18.079 6.487-41.467-5.778-47.882-2.996-1.567-10.956-4.017-20.151,7.033l-17.947,21.572c-11.892,14.295-22.827,37.368-30,63.302l-14.362,51.926c-6.719-0.526-14.063-0.786-22.101-0.786-5.329,0-10.763,0.104-16.18,0.388l-14.25-51.527c-7.172-25.934-18.107-49.007-30-63.303l-17.947-21.572c-9.194-11.05-17.154-8.6-20.151-7.033-12.266,6.415-10.778,29.803-5.778,47.882l31.307,113.191c-8.024,7.499-12.946,18.028-12.946,32.763 0,4.764 0.35,9.732 1.004,14.814-26.827,2.74-93.975,11.659-155.261,36.466-0.219,0.089-0.425,0.187-0.642,0.277-1.104-1.31-2.099-2.546-2.726-3.63-0.849-1.469-1.594-3.512-2.382-5.675-1.932-5.306-4.338-11.911-10.617-15.543-6.122-3.542-12.976-2.372-18.483-1.431-2.349,0.401-4.569,0.78-6.411,0.78-1.842,0-4.062-0.379-6.411-0.78-5.508-0.94-12.362-2.111-18.483,1.431-6.28,3.633-8.685,10.237-10.617,15.544-0.788,2.163-1.532,4.206-2.381,5.675-0.785,1.356-2.139,2.947-3.573,4.63-3.698,4.342-8.3,9.745-8.3,17.251 0,7.506 4.602,12.909 8.3,17.251 1.434,1.684 2.789,3.274 3.573,4.631 0.85,1.468 1.594,3.512 2.382,5.675 1.932,5.306 4.338,11.909 10.617,15.543 3.151,1.823 6.496,2.398 9.752,2.398 2.8,0 5.522-0.426 8.01-0.847-6.05,63.247 50.489,143.502 53.097,147.163 1.411,1.981 3.693,3.157 6.125,3.157h60.45zm231.518-287.06l-11.097,6.141c-13.345,7.385-24.068,22.657-30.196,43.002l-11.613,38.557c-2.343-0.679-5.044-1.061-7.968-1.061s-5.625,0.382-7.968,1.061l-11.613-38.557c-6.128-20.345-16.851-35.617-30.196-43.002l-12.904-7.141c9.136-7.242 26.24-12.133 57.668-12.451v12.405c0,2.769 2.245,5.013 5.013,5.013s5.013-2.245 5.013-5.013v-12.352c31.488,0.661 47.644,6.014 55.861,13.398zm-134.877,85.63c0-7.204 2.267-14.058 6.554-19.82 1.454-1.954 1.872-4.491 1.121-6.808-4.121-12.719-6.3-25.418-6.3-36.722 0-5.412 0.734-10.706 3.311-15.492l14.684,8.126c10.883,6.023 20.16,19.553 25.451,37.12l12.729,42.264c-0.167,0.55-0.268,1.117-0.268,1.702 0,4.15 5.129,13.632 12.208,16.711v11.345c-6.774-0.448-13.454-2.526-19.896-6.201-1.147-0.654-2.433-0.988-3.727-0.988-0.782,0-1.568,0.122-2.328,0.37-3.33,1.084-6.795,1.634-10.299,1.634-18.327-5.68434e-14-33.24-14.912-33.24-33.241zm-17.529-213.313c-4.267-15.426-3.32-25.407-2.066-29.266 0.515,0.459 1.163,1.115 1.937,2.046l17.947,21.572c10.422,12.526 20.54,34.094 27.067,57.693l13.519,48.88c-10.273,1.36-20.039,3.692-28.394,7.582l-30.01-108.507zm-209.015,249.854c-1.549-0.896-2.861-4.496-4.017-7.672-0.976-2.679-1.985-5.449-3.496-8.061-1.468-2.537-3.335-4.73-5.142-6.851-2.316-2.719-4.71-5.53-4.71-7.499 0-1.969 2.395-4.781 4.71-7.499 1.806-2.12 3.674-4.313 5.142-6.851 1.511-2.612 2.52-5.381 3.495-8.06 1.157-3.176 2.468-6.776 4.018-7.673 0.48-0.278 1.243-0.385 2.164-0.385 1.796,0 4.193,0.409 6.255,0.762 2.864,0.489 5.825,0.995 8.943,0.995 3.118,0 6.079-0.506 8.943-0.995 3.12-0.533 7.004-1.195 8.419-0.376 1.55,0.897 2.861,4.496 4.017,7.672 0.975,2.678 1.984,5.448 3.496,8.06 0.623,1.076 1.326,2.081 2.057,3.054-15.631,9.666-26.08,23.153-31.103,40.281-1.625,0.192-3.215,0.455-4.773,0.721-3.118,0.534-7,1.197-8.418,0.377zm102.501,149.849l-2.11-8.765c4.706-2.493 11.672-6.619 18.648-12.328l2.429,21.092h-18.967zm32.389-75.832c-3.811,0.625-6.53,4.035-6.289,7.89 1.861,29.778-39.485,47.988-39.894,48.164-3.369,1.444-5.207,5.107-4.349,8.671l2.674,11.107h-13.615c-11.136-16.602-60.898-94.896-45.824-146.619 5.126-17.589 17.122-29.986 36.674-37.9 59.776-24.196 127.212-32.96 152.375-35.537 0.648,2.7 1.357,5.41 2.167,8.123-4.79,7.651-7.303,16.405-7.303,25.543 0,13.608 5.668,25.91 14.756,34.694-3.655,13.205-5.958,35.863 9.691,59.489 17.371,26.228 23.528,41.978 25.697,49.433l-17.988,42.775h-11.563c1.594-10.755 4.246-29.091 5.61-40.958 1.217-10.577-2.217-21.006-9.67-29.365-8.441-9.466-21.157-16.146-33.905-15.119-14.958,1.206-59.244,9.609-59.244,9.609zm140.759,38.54c5.733-4.536 15.699-13.079 26.465-25.294-12.13,30.096-21.995,53.24-26.019,62.588h-16.12l15.674-37.294zm-4.328-9.774c-2.871-9.133-10.31-25.461-27.011-50.677-12.071-18.224-11.774-35.727-9.373-47.269 7.264,4.379 15.767,6.903 24.849,6.903 3.974,0 7.915-0.487 11.755-1.451 8.766,4.469 17.93,6.732 27.285,6.732 9.425,0 18.764-2.541 27.81-7.56 1.662,0.532 3.348,0.965 5.053,1.312-4.806,13.04-8.733,26.254-14.413,38.124-13.389,27.977-35.758,45.406-45.955,53.886-0.003-0.002 0.004,0.001 0,0zm69.988-106.082c-4.347,0-8.582-0.832-12.587-2.473-2.239-0.917-4.784-0.701-6.837,0.582-5.56,3.475-11.197,5.685-16.825,6.632v-10.9c7.079-3.078 12.208-12.561 12.208-16.711 0-0.586-0.101-1.152-0.268-1.702l12.729-42.264c5.291-17.568 14.567-31.098 25.45-37.12l12.182-6.741c1.955,4.519 2.372,9.356 2.372,14.107 0,10.152-1.956,21.712-5.658,33.43-0.813,2.574-0.184,5.386 1.648,7.369 5.692,6.159 8.828,14.168 8.828,22.551-5.68434e-14,18.328-14.912,33.24-33.242,33.24zm53.362-246.554l-30.713,111.046c-0.094-0.056-0.181-0.116-0.275-0.171-7.184-4.179-16.258-7.186-27.65-9.106l13.753-49.725c6.527-23.6 16.646-45.167 27.067-57.693l17.947-21.572c0.774-0.931 1.422-1.587 1.937-2.046 1.254,3.86 2.2,13.841-2.066,29.267z" fill="#FFFFFF"/>
    <path d="m304.066,245.707c0-1.975-0.802-3.91-2.196-5.314-1.404-1.404-3.338-2.206-5.314-2.206-1.985,0-3.921,0.802-5.324,2.206-1.404,1.404-2.206,3.339-2.206,5.314 0,1.985 0.802,3.921 2.206,5.324 1.404,1.393 3.339,2.196 5.324,2.196 1.975,0 3.91-0.802 5.314-2.196 1.394-1.403 2.196-3.338 2.196-5.324z" fill="#FFFFFF"/>
    <path d="m379.185,238.188c-1.985,0-3.921,0.802-5.324,2.206-1.394,1.394-2.196,3.339-2.196,5.314 0,1.985 0.802,3.921 2.196,5.324 1.404,1.393 3.339,2.196 5.324,2.196 1.975,0 3.91-0.802 5.314-2.196 1.404-1.404 2.206-3.339 2.206-5.324 0-1.975-0.802-3.921-2.206-5.314-1.394-1.404-3.339-2.206-5.314-2.206z" fill="#FFFFFF"/>
  </g>
</svg>
