<?xml version="1.0" encoding="iso-8859-1"?>
<!-- Generator: Adobe Illustrator 18.0.0, SVG Export Plug-In . SVG Version: 6.00 Build 0)  -->
<!DOCTYPE svg PUBLIC "-//W3C//DTD SVG 1.1//EN" "http://www.w3.org/Graphics/SVG/1.1/DTD/svg11.dtd">
<svg version="1.1" id="Capa_1" xmlns="http://www.w3.org/2000/svg" xmlns:xlink="http://www.w3.org/1999/xlink" x="0px" y="0px"
	 viewBox="0 0 365.86 365.86" style="enable-background:new 0 0 365.86 365.86;" xml:space="preserve">
<g>
	<path style="fill:#fff;" d="M340.25,182.925c0,8.48-0.62,16.81-1.82,24.95c-7.63,51.95-38.74,96.26-82.2,121.82
		c-11.02,6.47-22.83,11.74-35.25,15.63c-16.06,5.02-33.14,7.73-50.85,7.73c-31.42,0-60.84-8.51-86.1-23.36
		c-21.73-12.78-40.37-30.24-54.53-51c-9.81-14.37-17.47-30.31-22.52-47.38c-3.54-11.96-5.8-24.46-6.62-37.35
		c-0.24-3.65-0.36-7.33-0.36-11.04c0-37.92,12.41-72.94,33.39-101.23c30.99-41.8,80.7-68.89,136.74-68.89
		C264.09,12.805,340.25,88.965,340.25,182.925z"/>
	<path style="fill:#CCCCCC;" d="M269.78,284.525c-6.35,21.52-25.02,43.6-48.8,60.8c-1.02,0.32-2.04,0.63-3.06,0.92
		c-15.17,4.43-31.2,6.81-47.79,6.81c-31.42,0-60.84-8.51-86.1-23.36c-21.73-12.78-40.37-30.24-54.53-51
		c-9.81-14.37-17.47-30.31-22.52-47.38c-3.54-11.96-5.8-24.46-6.62-37.35c34.3-17.1,71.95-4.63,98.75-11.44
		c42-10.66,60.1-43.65,60.1-43.65l60.1,44.96l37.81,28.29C257.12,212.125,281.78,243.865,269.78,284.525z"/>
	<path style="fill:#E6E6E6;" d="M269.78,284.525c-6.35,21.52-25.02,43.6-48.8,60.8c-1.02,0.32-2.04,0.63-3.06,0.92
		c-13.63-20.25-30.39-50.19-32.14-77.05c-3-46,15.69-75.57,15.69-75.57l17.84-9.79l37.81,28.29
		C257.12,212.125,281.78,243.865,269.78,284.525z"/>
	<path style="fill:#B3B3B3;" d="M59.339,56.029L47.043,33.707c-2.99-5.428,1.378-11.973,7.538-11.295l25.331,2.789
		c46.668,5.139,87.916,32.666,110.569,73.789l19.407,35.23l-39.98-4.402C123.241,124.68,81.993,97.153,59.339,56.029z"/>
	<path style="fill:#CCCCCC;" d="M365.86,141.455c-1.52,3.56-3.22,7.02-5.1,10.37c-0.28,0.49-0.56,0.98-0.84,1.47
		c0,0.01-0.01,0.03-0.02,0.04c-3.25,5.63-6.97,10.93-11.12,15.86h-13c-6.08,0-11,4.92-11,11h13.39
		c-9.52,8.6-20.54,15.56-32.63,20.49l-7.36,2.99l-3.16,1.29c-0.27,0.11-0.53,0.22-0.8,0.31c-43.75,17.37-93.71,0.81-118.4-39.37
		l-33.45-54.44l37.11-20.91c42.07-23.7,94.23-19.98,132.51,9.47l43.37,33.35L365.86,141.455z"/>
	<path style="fill:#CCCCCC;" d="M24.763,92.77L6.78,74.713c-4.373-4.391-1.983-11.888,4.125-12.938l25.116-4.316
		c46.272-7.951,93.519,7.112,126.649,40.378l28.383,28.499l-39.64,6.812C105.141,141.099,57.894,126.036,24.763,92.77z"/>
	<path style="fill:#E6E6E6;" d="M58.296,98.78L47.029,87.467c-2.74-2.751-1.243-7.448,2.584-8.106l15.736-2.704
		c28.99-4.982,58.59,4.455,79.347,25.297l17.782,17.855l-24.835,4.268C108.653,129.059,79.053,119.622,58.296,98.78z"/>
	<path style="fill:#4D4D4D;" d="M299.447,126.195L299.447,126.195c-7.538,7.538-19.759,7.538-27.297,0l-5.805-5.804l5.805-5.804
		c7.538-7.538,19.759-7.538,27.296,0l0,0C302.652,117.792,302.652,122.989,299.447,126.195z"/>
	<path style="fill:#4D4D4D;" d="M365.86,141.455c-1.74,4.09-3.73,8.03-5.94,11.84c-4.34-2.17-7.31-6.66-7.31-11.84
		c0-3.04,1.02-5.84,2.75-8.08L365.86,141.455z"/>
	<path style="fill:#E6E6E6;" d="M360.76,151.825c-0.28,0.49-0.56,0.98-0.84,1.47c0,0.01-0.01,0.03-0.02,0.04
		c-3.25,5.63-6.97,10.93-11.12,15.86h-13c-6.08,0-11,4.92-11,11h13.39c-9.52,8.6-20.54,15.56-32.63,20.49l-7.36,2.99l-3.16,1.29
		c-0.27,0.11-0.53,0.22-0.8,0.31c-3.24-6.07-5.07-13.01-5.07-20.37c0-24,19.45-43.45,43.45-43.45
		C343.35,141.455,353.18,145.355,360.76,151.825z"/>
</g>
<g>
</g>
<g>
</g>
<g>
</g>
<g>
</g>
<g>
</g>
<g>
</g>
<g>
</g>
<g>
</g>
<g>
</g>
<g>
</g>
<g>
</g>
<g>
</g>
<g>
</g>
<g>
</g>
<g>
</g>
</svg>
